<?xml version="1.0" encoding="UTF-8"?>
<svg version="1.1" xmlns="http://www.w3.org/2000/svg" width="129" height="129">
<path d="M0 0 C0.77729462 -0.0033284 1.55458923 -0.0066568 2.35543823 -0.01008606 C3.98744113 -0.01511836 5.61945419 -0.01749554 7.25146484 -0.01733398 C9.74203317 -0.01953111 12.23216544 -0.03775469 14.72265625 -0.05664062 C16.31510266 -0.05957325 17.90755116 -0.06155892 19.5 -0.0625 C20.60953537 -0.07327827 20.60953537 -0.07327827 21.7414856 -0.08427429 C25.79231466 -0.06641339 29.04232042 0.18765559 32.6171875 2.16796875 C34.94369343 5.65772765 35.05711169 7.78030901 35.4921875 11.91796875 C36.44904349 19.11293238 37.70748228 23.33483472 42.9921875 28.48046875 C48.22779569 31.84621687 53.16141687 32.4325655 59.25 32.7265625 C62.10880166 33.25963938 63.50918875 34.18644992 65.6171875 36.16796875 C66.52636607 38.89550446 66.75688521 40.56412588 66.79418945 43.37646484 C66.81344231 44.64325577 66.81344231 44.64325577 66.83308411 45.93563843 C66.84047104 46.84504181 66.84785797 47.75444519 66.85546875 48.69140625 C66.8635405 49.62973297 66.87161224 50.56805969 66.87992859 51.53482056 C66.89375722 53.52026528 66.90448483 55.50573365 66.91235352 57.49121094 C66.92958286 60.52454643 66.97348168 63.55679649 67.01757812 66.58984375 C67.02770397 68.51952324 67.03622041 70.44921199 67.04296875 72.37890625 C67.06047684 73.28426117 67.07798492 74.18961609 67.09602356 75.12240601 C67.08153637 79.3356603 66.99090039 81.56870389 64.71557617 85.21728516 C61.36876855 88.32851179 58.83833461 88.43433548 54.3671875 88.98046875 C47.7363995 89.97472142 44.00693093 91.64546179 39.3671875 96.54296875 C36.44539395 100.92565908 35.51566132 104.52479577 35.6796875 109.73046875 C35.76030941 113.72125333 35.34394314 116.06510889 32.6171875 119.16796875 C27.96433431 121.72557555 23.28280485 121.47411701 18.1171875 121.46875 C17.20388672 121.47303513 16.29058594 121.47732025 15.34960938 121.48173523 C13.4231855 121.4874652 11.49673999 121.48798863 9.5703125 121.48364258 C6.62722861 121.48047954 3.68514747 121.50396893 0.7421875 121.52929688 C-1.13281124 121.53156973 -3.00781267 121.53227343 -4.8828125 121.53125 C-6.19862305 121.54506462 -6.19862305 121.54506462 -7.54101562 121.55915833 C-12.29746419 121.52321883 -15.53810664 121.29703677 -19.3828125 118.16796875 C-21.31463814 114.30431747 -21.16350337 109.23668998 -21.58984375 104.96484375 C-22.84349514 98.96213855 -25.97516222 94.67076797 -31.05078125 91.1875 C-35.21888485 89.36526375 -39.67808816 89.17603471 -44.17578125 88.8203125 C-47.86722068 88.06943505 -49.07635701 87.07993761 -51.3828125 84.16796875 C-53.02311513 80.88736349 -52.56740246 77.2512654 -52.5859375 73.64453125 C-52.59163757 72.78797943 -52.59733765 71.93142761 -52.60321045 71.04891968 C-52.6126729 69.22810096 -52.61919935 67.40726502 -52.62304688 65.58642578 C-52.63265316 62.83854744 -52.66362161 60.09144948 -52.6953125 57.34375 C-52.79255079 41.35296826 -50.91211386 26.3228776 -39.5234375 14.1171875 C-27.84903252 3.4866618 -15.46177569 0.02338941 0 0 Z M-18.3828125 32.16796875 C-24.46420697 39.01884579 -25.53307842 45.13449537 -25.5859375 54.1015625 C-25.59163757 54.85711929 -25.59733765 55.61267609 -25.60321045 56.39112854 C-25.61262415 57.98380142 -25.61917993 59.57649345 -25.62304688 61.16918945 C-25.63276757 63.59425973 -25.66383023 66.01848707 -25.6953125 68.44335938 C-25.70184225 69.99608876 -25.70709283 71.54882415 -25.7109375 73.1015625 C-25.7232843 73.82049179 -25.7356311 74.53942108 -25.74835205 75.28013611 C-25.72118618 81.47290723 -24.01302071 85.32875948 -19.9453125 89.91796875 C-10.33291451 98.35812308 7.74429639 95.79471201 19.76318359 95.03173828 C26.24780787 94.45207954 30.84362154 93.84854316 35.6171875 89.16796875 C39.60490073 83.45678352 40.21154529 79.20233992 40.1484375 72.32421875 C40.1522644 71.39629517 40.15609131 70.46837158 40.16003418 69.5123291 C40.16274453 67.55915231 40.15544505 65.60593868 40.13867188 63.65283203 C40.11724948 60.67657951 40.13850325 57.70274064 40.1640625 54.7265625 C40.16141907 52.8216093 40.15629377 50.91665759 40.1484375 49.01171875 C40.15653442 48.12923462 40.16463135 47.24675049 40.17297363 46.33752441 C40.08435068 40.44905289 39.01230659 37.00967669 35.6171875 32.16796875 C30.63493178 27.55026833 26.44315684 26.97146704 19.8671875 26.60546875 C19.17625 26.56228516 18.4853125 26.51910156 17.7734375 26.47460938 C-1.28290584 25.08674719 -1.28290584 25.08674719 -18.3828125 32.16796875 Z " fill="#18FC81" transform="translate(57.3828125,3.83203125)"/>
<path d="M0 0 C17.66666667 0 35.33333333 0 53 0 C54.10966768 3.32900304 53.81550944 3.78295587 53 7 C52.93209325 9.24907152 52.91500016 11.50001605 52.9375 13.75 C52.94652344 14.92046875 52.95554688 16.0909375 52.96484375 17.296875 C52.97644531 18.18890625 52.98804688 19.0809375 53 20 C52.34 20 51.68 20 51 20 C51 20.99 51 21.98 51 23 C46.23289495 24.21681039 41.5685296 24.16163647 36.68359375 24.16796875 C35.34337914 24.17296135 35.34337914 24.17296135 33.97608948 24.17805481 C32.09254469 24.18310469 30.208991 24.18546374 28.32543945 24.18530273 C25.44402422 24.18749504 22.56298849 24.20568709 19.68164062 24.22460938 C17.84895964 24.22754253 16.01627684 24.22952785 14.18359375 24.23046875 C13.32309921 24.23765427 12.46260468 24.24483978 11.57603455 24.25224304 C10.7716243 24.24916641 9.96721405 24.24608978 9.13842773 24.24291992 C8.08183205 24.24505745 8.08183205 24.24505745 7.00389099 24.24723816 C4.58176273 23.94839828 3.02896177 23.35910795 1 22 C0.33418151 19.31262403 -0.06072336 16.97798771 -0.3125 14.25 C-0.39822266 13.54617187 -0.48394531 12.84234375 -0.57226562 12.1171875 C-1.03352219 7.87520404 -0.91992567 4.20915632 0 0 Z " fill="#13FE7F" transform="translate(38,99)"/>
<path d="M0 0 C0.66 0 1.32 0 2 0 C1.67644531 1.12019531 1.35289063 2.24039063 1.01953125 3.39453125 C-0.50501468 10.28127323 -0.33524262 17.28647966 -0.31567383 24.30297852 C-0.31249311 26.69267571 -0.33610799 29.08115645 -0.36132812 31.47070312 C-0.36359974 33.00520679 -0.36430525 34.53971375 -0.36328125 36.07421875 C-0.372491 36.78059982 -0.38170074 37.4869809 -0.39118958 38.21476746 C-0.34770716 42.90049819 0.68899044 45.95948906 3 50 C3.33 50.99 3.66 51.98 4 53 C6.42383077 54.16953416 6.42383077 54.16953416 9 55 C9.66 55.33 10.32 55.66 11 56 C17.72570135 57.03140967 24.52030406 57.19381773 31.3125 57.1875 C32.22314209 57.18669434 33.13378418 57.18588867 34.07202148 57.18505859 C46.98326031 57.14423919 46.98326031 57.14423919 59 53 C59 54.98 59 56.96 59 59 C58.05159492 58.99000725 58.05159492 58.99000725 57.08403015 58.97981262 C50.51448645 58.91353853 43.94503741 58.86823239 37.37524414 58.83520508 C34.92207992 58.82010119 32.46894276 58.79961679 30.01586914 58.77368164 C26.49358445 58.73736943 22.97165619 58.72028964 19.44921875 58.70703125 C18.34913986 58.69154739 17.24906097 58.67606354 16.11564636 58.66011047 C15.09481461 58.65988388 14.07398285 58.65965729 13.0222168 58.65942383 C12.12286911 58.65276199 11.22352142 58.64610016 10.29692078 58.63923645 C7.94440182 58.82925724 7.94440182 58.82925724 6.19294739 60.32035828 C4.22658909 63.08894428 4.93253076 65.64893276 5.25 68.9375 C5.35828125 70.16339844 5.4665625 71.38929687 5.578125 72.65234375 C5.89936485 75.20144146 6.28526371 77.54155364 7 80 C6.01 80.495 6.01 80.495 5 81 C3.52377576 78.04755153 3.53336525 75.08690649 3.1875 71.8125 C2.51180223 66.0264078 1.4666733 61.73778684 -2 57 C-1.34 57 -0.68 57 0 57 C-0.185625 56.2575 -0.37125 55.515 -0.5625 54.75 C-0.99203108 52.05009037 -0.85122974 50.55368923 0 48 C-0.66 48 -1.32 48 -2 48 C-4.89240595 38.25332113 -4.11041613 26.71952249 -4.1875 16.625 C-4.20047119 15.70340088 -4.21344238 14.78180176 -4.22680664 13.83227539 C-4.22801514 12.97239014 -4.22922363 12.11250488 -4.23046875 11.2265625 C-4.23457764 10.45908691 -4.23868652 9.69161133 -4.24291992 8.90087891 C-4 7 -4 7 -2 5 C-1.29289322 3.35008418 -0.62056011 1.68437744 0 0 Z " fill="#4FED98" transform="translate(33,41)"/>
<path d="M0 0 C4.66636142 1.47358782 4.66636142 1.47358782 6.14590454 3.80799866 C7.05561073 6.14272268 7.26480797 7.82576458 7.29052734 10.32202148 C7.3096669 11.58869911 7.3096669 11.58869911 7.32919312 12.88096619 C7.33141876 13.78520828 7.33364441 14.68945038 7.3359375 15.62109375 C7.3425943 16.55800552 7.3492511 17.4949173 7.35610962 18.46022034 C7.36622455 20.43968749 7.370927 22.41918867 7.37060547 24.39868164 C7.37497941 27.42326103 7.4113132 30.44638175 7.44921875 33.47070312 C7.45508703 35.39582835 7.45905635 37.3209605 7.4609375 39.24609375 C7.47530853 40.14831161 7.48967957 41.05052948 7.50448608 41.98008728 C7.47398579 46.18146475 7.36811815 48.4108127 5.09619141 52.04711914 C1.75214712 55.16254079 -0.77851642 55.26632564 -5.25 55.8125 C-10.65479767 56.60591953 -13.85036512 57.50557063 -18 61 C-18.99 61.66 -19.98 62.32 -21 63 C-21 61.68 -21 60.36 -21 59 C-20.01 59 -19.02 59 -18 59 C-18 58.01 -18 57.02 -18 56 C-11.92972642 53.8416805 -6.40629424 53.79147686 0 54 C0.33 53.01 0.66 52.02 1 51 C1.99 51 2.98 51 4 51 C4 35.49 4 19.98 4 4 C3.01 3.67 2.02 3.34 1 3 C0.67 2.01 0.34 1.02 0 0 Z " fill="#87E9B5" transform="translate(117,37)"/>
<path d="M0 0 C1.32 0.33 2.64 0.66 4 1 C3.505 2.134375 3.01 3.26875 2.5 4.4375 C1.25687323 7.68344213 0.86036897 10.21999617 1 13.6875 C1.12966993 17.64584528 0.70847001 19.91794792 -2 23 C-6.66003206 25.56434295 -11.36064256 25.30613835 -16.53515625 25.30078125 C-17.90866493 25.30720894 -17.90866493 25.30720894 -19.30992126 25.31376648 C-21.24054133 25.31949593 -23.17118297 25.32002027 -25.10180664 25.31567383 C-28.05587418 25.3125071 -31.00894629 25.33601352 -33.96289062 25.36132812 C-35.84114457 25.36360057 -37.71940121 25.36430487 -39.59765625 25.36328125 C-40.92120872 25.37709587 -40.92120872 25.37709587 -42.27149963 25.39118958 C-43.09593063 25.38496078 -43.92036163 25.37873199 -44.76977539 25.37231445 C-45.49193741 25.37294388 -46.21409943 25.3735733 -46.95814514 25.3742218 C-49 25 -49 25 -53 22 C-36.5 22 -20 22 -3 22 C-3 21.01 -3 20.02 -3 19 C-2.34 19 -1.68 19 -1 19 C-1.09539062 17.96359375 -1.19078125 16.9271875 -1.2890625 15.859375 C-1.40164406 14.48963271 -1.51358988 13.11983807 -1.625 11.75 C-1.72167969 10.72712891 -1.72167969 10.72712891 -1.8203125 9.68359375 C-2.11594735 5.8772951 -2.17561392 3.22190154 0 0 Z " fill="#87EAB4" transform="translate(92,100)"/>
<path d="M0 0 C0.42410156 0.39832031 0.84820312 0.79664062 1.28515625 1.20703125 C5.32767445 4.85862461 8.88650302 7.12157254 14 9 C14 9.33 14 9.66 14 10 C9.78121808 10.19622241 6.82989106 9.80230168 3 8 C2.957279 9.66611905 2.95936168 11.33382885 3 13 C3.33 13.33 3.66 13.66 4 14 C4.0634834 15.35212691 4.05723393 16.70764037 4.02172852 18.06079102 C4.00163223 18.92160782 3.98153595 19.78242462 3.96083069 20.66932678 C3.93379562 21.60473801 3.90676056 22.54014923 3.87890625 23.50390625 C3.85529526 24.45692123 3.83168427 25.40993622 3.80735779 26.39183044 C3.73051613 29.44886421 3.64658053 32.50565758 3.5625 35.5625 C3.50929982 37.62954536 3.45655931 39.6966026 3.40429688 41.76367188 C3.27487338 46.84260141 3.13908558 51.92132624 3 57 C2.67 57 2.34 57 2 57 C1.98598145 55.19196899 1.98598145 55.19196899 1.97167969 53.34741211 C1.93165484 48.85371636 1.86586151 44.36069625 1.79248047 39.86743164 C1.76434315 37.92676506 1.74309274 35.98598543 1.72900391 34.04516602 C1.70747382 31.24697288 1.66077282 28.45012871 1.609375 25.65234375 C1.60814636 24.7916478 1.60691772 23.93095184 1.60565186 23.04417419 C1.46541308 17.2100478 0.25118614 13.8528619 -3 9 C-3.33 8.34 -3.66 7.68 -4 7 C-2.35 6.67 -0.7 6.34 1 6 C0.67 4.02 0.34 2.04 0 0 Z " fill="#A0F6CA" transform="translate(95,27)"/>
<path d="M0 0 C1.24072266 -0.00128906 2.48144531 -0.00257812 3.75976562 -0.00390625 C5.67885742 0.00189453 5.67885742 0.00189453 7.63671875 0.0078125 C8.90451172 0.00394531 10.17230469 0.00007813 11.47851562 -0.00390625 C18.49011295 0.00335589 25.36663333 0.2403713 32.32421875 1.1328125 C32.32421875 2.4528125 32.32421875 3.7728125 32.32421875 5.1328125 C31.48117188 4.81699219 30.638125 4.50117187 29.76953125 4.17578125 C16.80055312 0.24979807 -1.53781512 0.97541942 -14.67578125 4.1328125 C-14.34578125 3.1428125 -14.01578125 2.1528125 -13.67578125 1.1328125 C-9.07423195 0.39886776 -4.65815498 0.00471371 0 0 Z " fill="#74E8AA" transform="translate(58.67578125,28.8671875)"/>
<path d="M0 0 C0.66 0 1.32 0 2 0 C1.52433594 1.68416016 1.52433594 1.68416016 1.0390625 3.40234375 C-0.64755128 10.99210574 -0.47107601 18.82220756 -0.625 26.5625 C-0.66325209 28.15952483 -0.70230782 29.75653061 -0.7421875 31.35351562 C-0.83739681 35.23551951 -0.92170952 39.11761956 -1 43 C-1.33 43 -1.66 43 -2 43 C-2.495 35.575 -2.495 35.575 -3 28 C-3.33 28 -3.66 28 -4 28 C-4.05789006 24.54173658 -4.09355821 21.08359707 -4.125 17.625 C-4.14175781 16.64015625 -4.15851562 15.6553125 -4.17578125 14.640625 C-4.18222656 13.69960938 -4.18867188 12.75859375 -4.1953125 11.7890625 C-4.20578613 10.91975098 -4.21625977 10.05043945 -4.22705078 9.15478516 C-4 7 -4 7 -2 5 C-1.29289322 3.35008418 -0.62056011 1.68437744 0 0 Z " fill="#94F4C2" transform="translate(33,41)"/>
<path d="M0 0 C0.33 0 0.66 0 1 0 C1.07445407 4.73222455 1.1287447 9.46410411 1.16479492 14.19677734 C1.17983176 15.80491072 1.20026672 17.41300344 1.22631836 19.02099609 C1.26292822 21.33962064 1.27977722 23.65770049 1.29296875 25.9765625 C1.30845261 26.68930328 1.32393646 27.40204407 1.33988953 28.13638306 C1.34144847 32.81647487 0.63460601 36.10362088 -2 40 C-4.1875 40.875 -4.1875 40.875 -6 41 C-5.64848877 40.4652002 -5.29697754 39.93040039 -4.93481445 39.37939453 C-0.27978555 31.40286415 -0.22138676 23.81699642 -0.1875 14.875 C-0.16430809 13.42704645 -0.13893316 11.97912614 -0.11132812 10.53125 C-0.04907768 7.02085835 -0.01626913 3.51094151 0 0 Z " fill="#33ED88" transform="translate(98,53)"/>
<path d="M0 0 C0.66 0.33 1.32 0.66 2 1 C0.35 1.66 -1.3 2.32 -3 3 C-3 3.66 -3 4.32 -3 5 C-9.9375 11 -9.9375 11 -14 11 C-14 11.66 -14 12.32 -14 13 C-15.32 13.33 -16.64 13.66 -18 14 C-15.75288196 9.5369739 -13.17699329 7.4322849 -9 4.75 C-7.948125 4.06421875 -6.89625 3.3784375 -5.8125 2.671875 C-3 1 -3 1 0 0 Z " fill="#6EE6A7" transform="translate(35,7)"/>
<path d="M0 0 C0.66 0.33 1.32 0.66 2 1 C2 1.33 2 1.66 2 2 C13.88 2.33 25.76 2.66 38 3 C38 3.33 38 3.66 38 4 C32.51905634 4.049467 27.03824287 4.0857514 21.55712891 4.10986328 C19.69284806 4.11991593 17.82858297 4.13356005 15.96435547 4.15087891 C13.28348909 4.17515953 10.60283134 4.18649047 7.921875 4.1953125 C7.08944275 4.20563507 6.2570105 4.21595764 5.39935303 4.22659302 C-1.74669236 4.22797609 -1.74669236 4.22797609 -5 2 C-2.625 0.9375 -2.625 0.9375 0 0 Z " fill="#1DF983" transform="translate(44,119)"/>
<path d="M0 0 C2.55309863 2.55309863 2.75940885 4.50171812 3.5625 8 C4.46076773 12.11547915 4.46076773 12.11547915 6 16 C5.34 16.66 4.68 17.32 4 18 C1.9375 17.8125 1.9375 17.8125 0 17 C-0.33 16.01 -0.66 15.02 -1 14 C-0.34 14 0.32 14 1 14 C0.835 12.989375 0.67 11.97875 0.5 10.9375 C0.03014231 7.23737067 -0.07599849 3.72392609 0 0 Z " fill="#3BF392" transform="translate(91,17)"/>
<path d="M0 0 C1.32 0.33 2.64 0.66 4 1 C3.505 2.134375 3.01 3.26875 2.5 4.4375 C1.24349813 7.70324679 0.88113339 10.20058071 1.0625 13.6875 C1.21736919 17.26807564 1.08948113 17.86298202 -1 21.0625 C-1.66 21.701875 -2.32 22.34125 -3 23 C-3 21.68 -3 20.36 -3 19 C-2.34 19 -1.68 19 -1 19 C-1.09539062 17.96359375 -1.19078125 16.9271875 -1.2890625 15.859375 C-1.40164406 14.48963271 -1.51358988 13.11983807 -1.625 11.75 C-1.72167969 10.72712891 -1.72167969 10.72712891 -1.8203125 9.68359375 C-2.11594735 5.8772951 -2.17561392 3.22190154 0 0 Z " fill="#59E69D" transform="translate(92,100)"/>
<path d="M0 0 C0.33 0.66 0.66 1.32 1 2 C0.0625 4.625 0.0625 4.625 -1 7 C-1.66 7 -2.32 7 -3 7 C-3.33 9.31 -3.66 11.62 -4 14 C-5.32 14.33 -6.64 14.66 -8 15 C-6.31910452 8.85038239 -4.40439414 4.6424695 0 0 Z " fill="#5EEAA1" transform="translate(16,21)"/>
<path d="M0 0 C4.62 0 9.24 0 14 0 C14 0.66 14 1.32 14 2 C15.65 2.33 17.3 2.66 19 3 C18.34 3.66 17.68 4.32 17 5 C16.21625 4.690625 15.4325 4.38125 14.625 4.0625 C10.71707746 2.91707443 7.12212844 2.58577749 3.07421875 2.34375 C2.38972656 2.2303125 1.70523437 2.116875 1 2 C0.67 1.34 0.34 0.68 0 0 Z " fill="#51E597" transform="translate(9,90)"/>
<path d="M0 0 C0.99 1.485 0.99 1.485 2 3 C2.53625 3.680625 3.0725 4.36125 3.625 5.0625 C5 7 5 7 5 9 C6.175625 9.433125 6.175625 9.433125 7.375 9.875 C10 11 10 11 12 13 C10.35 13 8.7 13 7 13 C6.67 12.01 6.34 11.02 6 10 C4.02 10 2.04 10 0 10 C0.33 9.01 0.66 8.02 1 7 C0.72230092 4.6593935 0.39460023 2.32375692 0 0 Z " fill="#7CEAB0" transform="translate(32,85)"/>
<path d="M0 0 C0 1.98 0 3.96 0 6 C-3.3 6 -6.6 6 -10 6 C-4 0 -4 0 0 0 Z " fill="#42EF94" transform="translate(92,94)"/>
<path d="M0 0 C0.42410156 0.39832031 0.84820312 0.79664062 1.28515625 1.20703125 C5.32767445 4.85862461 8.88650302 7.12157254 14 9 C14 9.33 14 9.66 14 10 C9.80619438 10.19506073 6.72640507 10.01427301 3 8 C0.14786086 5.04951123 0 4.28899863 0 0 Z " fill="#7CEBB1" transform="translate(95,27)"/>
<path d="M0 0 C-6 4 -6 4 -12 8 C-12 6.68 -12 5.36 -12 4 C-11.01 4 -10.02 4 -9 4 C-9 3.01 -9 2.02 -9 1 C-6.04335481 -0.4783226 -3.25770263 -0.06032783 0 0 Z " fill="#68ECA5" transform="translate(108,92)"/>
<path d="M0 0 C6.27 0 12.54 0 19 0 C19 1.32 19 2.64 19 4 C18.15179688 3.68289062 17.30359375 3.36578125 16.4296875 3.0390625 C12.90522775 1.97128768 9.79329043 1.59958921 6.125 1.375 C4.97257812 1.30023437 3.82015625 1.22546875 2.6328125 1.1484375 C1.32957031 1.07496094 1.32957031 1.07496094 0 1 C0 0.67 0 0.34 0 0 Z " fill="#8EEBBB" transform="translate(72,30)"/>
<path d="M0 0 C0.66 0.66 1.32 1.32 2 2 C-1 4 -1 4 -4 4 C-4 4.66 -4 5.32 -4 6 C-5.32 6.33 -6.64 6.66 -8 7 C-6.41641358 3.83282717 -5.54736301 2.26731682 -2.3125 0.6875 C-1.549375 0.460625 -0.78625 0.23375 0 0 Z " fill="#44EA92" transform="translate(25,14)"/>
<path d="M0 0 C1.06126775 4.24507101 1.08878929 5.31975221 -1 9 C-2.32 9.33 -3.64 9.66 -5 10 C-3.35 6.7 -1.7 3.4 0 0 Z " fill="#61E39D" transform="translate(97,84)"/>
<path d="M0 0 C2.31 0 4.62 0 7 0 C7.33 0.99 7.66 1.98 8 3 C8.99 3.33 9.98 3.66 11 4 C8.69 3.67 6.38 3.34 4 3 C4 2.34 4 1.68 4 1 C2.68 0.67 1.36 0.34 0 0 Z " fill="#27E982" transform="translate(110,37)"/>
<path d="M0 0 C0.99 0 1.98 0 3 0 C3 3.96 3 7.92 3 12 C2.67 12 2.34 12 2 12 C1.34 8.04 0.68 4.08 0 0 Z " fill="#4DEA96" transform="translate(96,41)"/>
</svg>
