<?xml version="1.0" encoding="UTF-8"?>
<!DOCTYPE svg PUBLIC "-//W3C//DTD SVG 1.1//EN" "http://www.w3.org/Graphics/SVG/1.1/DTD/svg11.dtd">
<svg xmlns="http://www.w3.org/2000/svg" version="1.1" width="129px" height="129px" style="shape-rendering:geometricPrecision; text-rendering:geometricPrecision; image-rendering:optimizeQuality; fill-rule:evenodd; clip-rule:evenodd" xmlns:xlink="http://www.w3.org/1999/xlink">
<g><path style="opacity:1" fill="#14fe7f" d="M 43.5,5.5 C 56.8375,5.33344 70.1708,5.5001 83.5,6C 83.8881,7.52517 83.8881,9.19183 83.5,11C 84.3333,11.8333 85.1667,12.6667 86,13.5C 87.0113,12.6634 88.1779,12.33 89.5,12.5C 89.6695,14.8484 90.0029,17.1817 90.5,19.5C 90.6399,21.0296 91.3065,22.0296 92.5,22.5C 93.404,23.209 93.7373,24.209 93.5,25.5C 93.427,27.0269 94.0937,28.0269 95.5,28.5C 95.5,29.1667 95.5,29.8333 95.5,30.5C 95.6495,31.552 95.4828,32.552 95,33.5C 93.7012,33.0338 92.2012,33.0338 90.5,33.5C 90.1667,32.8333 89.8333,32.1667 89.5,31.5C 89.6107,30.8826 89.944,30.3826 90.5,30C 77.6262,27.5369 64.6262,26.8703 51.5,28C 46.4559,28.5176 41.9559,30.3509 38,33.5C 36.588,32.0773 35.4213,32.244 34.5,34C 35.3331,36.0811 35.3331,38.2478 34.5,40.5C 32.2239,40.7565 31.0572,42.0898 31,44.5C 30.3333,45.8333 29.6667,45.8333 29,44.5C 26.2156,46.779 25.8823,49.4457 28,52.5C 28.6667,63.1667 28.6667,73.8333 28,84.5C 26.1866,83.3238 24.6866,81.3238 23.5,78.5C 22.914,78.7093 22.414,79.0426 22,79.5C 21.5034,81.8098 21.3367,84.1432 21.5,86.5C 23.604,86.2011 25.604,86.5344 27.5,87.5C 27.1345,88.9019 26.3012,89.9019 25,90.5C 23.0858,89.9205 21.4191,88.9205 20,87.5C 18.5603,88.1476 17.0603,88.4809 15.5,88.5C 15.67,87.1779 15.3366,86.0113 14.5,85C 15.7932,84.51 17.1266,84.3433 18.5,84.5C 18.1797,73.585 18.513,62.7517 19.5,52C 18.8841,48.7125 17.3841,45.8792 15,43.5C 14.1678,46.8694 12.6678,49.8694 10.5,52.5C 10.1667,55.1667 9.83333,57.8333 9.5,60.5C 10.8075,68.7165 11.8075,77.0498 12.5,85.5C 12.1924,86.3081 11.6924,86.9747 11,87.5C 9.87099,85.8588 8.37099,84.8588 6.5,84.5C 6.5,69.5 6.5,54.5 6.5,39.5C 7.93127,38.2196 8.59794,36.5529 8.5,34.5C 9.67504,34.719 10.675,34.3857 11.5,33.5C 12.7159,28.9656 14.3825,24.6322 16.5,20.5C 19.1667,19.8333 20.8333,18.1667 21.5,15.5C 21.5,14.8333 21.8333,14.5 22.5,14.5C 29.4971,11.2859 36.4971,8.28589 43.5,5.5 Z"/></g>
<g><path style="opacity:1" fill="#96dcaf" d="M 31.5,8.5 C 31.0269,9.90632 30.0269,10.573 28.5,10.5C 28.9731,9.09368 29.9731,8.42702 31.5,8.5 Z"/></g>
<g><path style="opacity:1" fill="#56ea90" d="M 41.5,5.5 C 42.1667,5.5 42.8333,5.5 43.5,5.5C 36.4971,8.28589 29.4971,11.2859 22.5,14.5C 24.1475,12.6736 26.1475,11.3403 28.5,10.5C 30.0269,10.573 31.0269,9.90632 31.5,8.5C 34.4083,6.39522 37.7417,5.39522 41.5,5.5 Z"/></g>
<g><path style="opacity:1" fill="#75f29f" d="M 92.5,22.5 C 91.3065,22.0296 90.6399,21.0296 90.5,19.5C 90.0029,17.1817 89.6695,14.8484 89.5,12.5C 88.1779,12.33 87.0113,12.6634 86,13.5C 85.1667,12.6667 84.3333,11.8333 83.5,11C 83.8881,9.19183 83.8881,7.52517 83.5,6C 70.1708,5.5001 56.8375,5.33344 43.5,5.5C 42.8333,5.5 42.1667,5.5 41.5,5.5C 49.6081,3.96112 57.9415,3.29446 66.5,3.5C 73.0347,3.52829 79.5347,3.86163 86,4.5C 88.2571,5.08991 89.9237,6.42324 91,8.5C 91.435,13.184 91.935,17.8507 92.5,22.5 Z"/></g>
<g><path style="opacity:1" fill="#66e196" d="M 21.5,15.5 C 20.8333,18.1667 19.1667,19.8333 16.5,20.5C 17.1894,17.8106 18.856,16.1439 21.5,15.5 Z"/></g>
<g><path style="opacity:1" fill="#6ef09d" d="M 89.5,31.5 C 88.8333,31.5 88.1667,31.5 87.5,31.5C 74.7331,29.6318 61.7331,29.4652 48.5,31C 42.8309,32.86 38.1643,36.0267 34.5,40.5C 35.3331,38.2478 35.3331,36.0811 34.5,34C 35.4213,32.244 36.588,32.0773 38,33.5C 41.9559,30.3509 46.4559,28.5176 51.5,28C 64.6262,26.8703 77.6262,27.5369 90.5,30C 89.944,30.3826 89.6107,30.8826 89.5,31.5 Z"/></g>
<g><path style="opacity:0.498" fill="#bbe2cc" d="M 93.5,25.5 C 94.9063,25.9731 95.573,26.9731 95.5,28.5C 94.0937,28.0269 93.427,27.0269 93.5,25.5 Z"/></g>
<g><path style="opacity:1" fill="#60f097" d="M 16.5,20.5 C 14.3825,24.6322 12.7159,28.9656 11.5,33.5C 10.675,34.3857 9.67504,34.719 8.5,34.5C 8.5,34.1667 8.5,33.8333 8.5,33.5C 9.54624,28.1305 12.2129,23.7972 16.5,20.5 Z"/></g>
<g><path style="opacity:1" fill="#93dead" d="M 87.5,31.5 C 88.1667,31.5 88.8333,31.5 89.5,31.5C 89.8333,32.1667 90.1667,32.8333 90.5,33.5C 88.9731,33.573 87.9731,32.9063 87.5,31.5 Z"/></g>
<g><path style="opacity:1" fill="#7ce9a5" d="M 95.5,28.5 C 97.1667,29.5 98.5,30.8333 99.5,32.5C 97.8007,32.4729 96.4674,31.8062 95.5,30.5C 95.5,29.8333 95.5,29.1667 95.5,28.5 Z"/></g>
<g><path style="opacity:1" fill="#92f3b0" d="M 95.5,30.5 C 96.4674,31.8062 97.8007,32.4729 99.5,32.5C 105.554,35.527 111.888,37.1937 118.5,37.5C 118.167,37.5 117.833,37.5 117.5,37.5C 110.983,38.1445 104.816,37.1445 99,34.5C 97.558,35.2125 96.7247,36.3791 96.5,38C 97.2335,39.7659 97.5668,41.5992 97.5,43.5C 97.8289,57.0105 97.4956,70.3438 96.5,83.5C 96.6666,69.8293 96.4999,56.1626 96,42.5C 94.6705,39.171 92.8372,36.171 90.5,33.5C 92.2012,33.0338 93.7012,33.0338 95,33.5C 95.4828,32.552 95.6495,31.552 95.5,30.5 Z"/></g>
<g><path style="opacity:1" fill="#82dca4" d="M 8.5,33.5 C 8.5,33.8333 8.5,34.1667 8.5,34.5C 8.59794,36.5529 7.93127,38.2196 6.5,39.5C 6.25939,37.1016 6.92606,35.1016 8.5,33.5 Z"/></g>
<g><path style="opacity:0.318" fill="#d0ebdc" d="M 120.5,38.5 C 121.906,38.9731 122.573,39.9731 122.5,41.5C 121.094,41.0269 120.427,40.0269 120.5,38.5 Z"/></g>
<g><path style="opacity:1" fill="#13fe7f" d="M 117.5,37.5 C 118.658,39.8165 119.825,42.1498 121,44.5C 121.667,57.8333 121.667,71.1667 121,84.5C 119.731,85.9047 119.231,87.5714 119.5,89.5C 117.5,89.5 115.5,89.5 113.5,89.5C 110.404,90.0934 108.071,89.0934 106.5,86.5C 103.219,89.4962 100.552,89.1629 98.5,85.5C 98.8291,71.3234 98.4958,57.3234 97.5,43.5C 97.5668,41.5992 97.2335,39.7659 96.5,38C 96.7247,36.3791 97.558,35.2125 99,34.5C 104.816,37.1445 110.983,38.1445 117.5,37.5 Z"/></g>
<g><path style="opacity:1" fill="#23fd82" d="M 34.5,40.5 C 33.4986,43.1716 32.4986,45.8382 31.5,48.5C 30.596,49.209 30.2627,50.209 30.5,51.5C 29.341,62.3255 29.1743,73.3255 30,84.5C 30.3333,85.8333 30.6667,87.1667 31,88.5C 31.6708,89.2524 32.5041,89.5858 33.5,89.5C 33.7376,91.4044 34.7376,92.7377 36.5,93.5C 39.1401,94.8201 41.8068,96.1534 44.5,97.5C 44.5,97.8333 44.5,98.1667 44.5,98.5C 42.1667,98.5 39.8333,98.5 37.5,98.5C 37.7678,100.099 37.4345,101.432 36.5,102.5C 35.7377,100.738 34.4044,99.7376 32.5,99.5C 32.5123,96.858 31.179,95.5246 28.5,95.5C 27.656,93.2407 25.9893,92.2407 23.5,92.5C 22.9423,91.2101 21.9423,90.3768 20.5,90C 17.1667,89.6667 13.8333,89.3333 10.5,89C 8.61562,87.9513 7.28229,86.4513 6.5,84.5C 8.37099,84.8588 9.87099,85.8588 11,87.5C 11.6924,86.9747 12.1924,86.3081 12.5,85.5C 11.8075,77.0498 10.8075,68.7165 9.5,60.5C 9.83333,57.8333 10.1667,55.1667 10.5,52.5C 12.6678,49.8694 14.1678,46.8694 15,43.5C 17.3841,45.8792 18.8841,48.7125 19.5,52C 18.513,62.7517 18.1797,73.585 18.5,84.5C 17.1266,84.3433 15.7932,84.51 14.5,85C 15.3366,86.0113 15.67,87.1779 15.5,88.5C 17.0603,88.4809 18.5603,88.1476 20,87.5C 21.4191,88.9205 23.0858,89.9205 25,90.5C 26.3012,89.9019 27.1345,88.9019 27.5,87.5C 25.604,86.5344 23.604,86.2011 21.5,86.5C 21.3367,84.1432 21.5034,81.8098 22,79.5C 22.414,79.0426 22.914,78.7093 23.5,78.5C 24.6866,81.3238 26.1866,83.3238 28,84.5C 28.6667,73.8333 28.6667,63.1667 28,52.5C 25.8823,49.4457 26.2156,46.779 29,44.5C 29.6667,45.8333 30.3333,45.8333 31,44.5C 31.0572,42.0898 32.2239,40.7565 34.5,40.5 Z"/></g>
<g><path style="opacity:0.058" fill="#f8fbf9" d="M 31.5,48.5 C 31.5377,59.8598 31.5377,71.5264 31.5,83.5C 30.5056,73.0131 30.1722,62.3464 30.5,51.5C 30.2627,50.209 30.596,49.209 31.5,48.5 Z"/></g>
<g><path style="opacity:1" fill="#86edab" d="M 117.5,37.5 C 117.833,37.5 118.167,37.5 118.5,37.5C 119.492,37.3284 120.158,37.6618 120.5,38.5C 120.427,40.0269 121.094,41.0269 122.5,41.5C 123.649,56.0921 123.815,70.7588 123,85.5C 122.34,87.3237 121.173,88.657 119.5,89.5C 119.231,87.5714 119.731,85.9047 121,84.5C 121.667,71.1667 121.667,57.8333 121,44.5C 119.825,42.1498 118.658,39.8165 117.5,37.5 Z"/></g>
<g><path style="opacity:1" fill="#43eb8c" d="M 97.5,43.5 C 98.4958,57.3234 98.8291,71.3234 98.5,85.5C 97.5266,87.4469 96.5266,89.4469 95.5,91.5C 94.5832,92.1272 93.5832,92.4606 92.5,92.5C 94.0909,89.6484 95.4242,86.6484 96.5,83.5C 97.4956,70.3438 97.8289,57.0105 97.5,43.5 Z"/></g>
<g><path style="opacity:1" fill="#6ee69c" d="M 6.5,39.5 C 6.5,54.5 6.5,69.5 6.5,84.5C 7.28229,86.4513 8.61562,87.9513 10.5,89C 13.8333,89.3333 17.1667,89.6667 20.5,90C 21.9423,90.3768 22.9423,91.2101 23.5,92.5C 18.8507,91.935 14.184,91.435 9.5,91C 7.27385,89.7727 5.77385,87.9393 5,85.5C 4.33333,72.1667 4.33333,58.8333 5,45.5C 5.19088,43.2922 5.69088,41.2922 6.5,39.5 Z"/></g>
<g><path style="opacity:1" fill="#57e593" d="M 30.5,51.5 C 30.1722,62.3464 30.5056,73.0131 31.5,83.5C 32.3627,85.4214 33.0293,87.4214 33.5,89.5C 32.5041,89.5858 31.6708,89.2524 31,88.5C 30.6667,87.1667 30.3333,85.8333 30,84.5C 29.1743,73.3255 29.341,62.3255 30.5,51.5 Z"/></g>
<g><path style="opacity:1" fill="#a1e2b7" d="M 33.5,89.5 C 35.2624,90.2623 36.2624,91.5956 36.5,93.5C 34.7376,92.7377 33.7376,91.4044 33.5,89.5 Z"/></g>
<g><path style="opacity:1" fill="#5fd590" d="M 113.5,89.5 C 115.5,89.5 117.5,89.5 119.5,89.5C 119.082,90.2216 118.416,90.7216 117.5,91C 114.183,91.4983 110.85,91.665 107.5,91.5C 109.5,90.8333 111.5,90.1667 113.5,89.5 Z"/></g>
<g><path style="opacity:1" fill="#74e29e" d="M 23.5,92.5 C 25.9893,92.2407 27.656,93.2407 28.5,95.5C 26.5659,94.8897 24.8993,93.8897 23.5,92.5 Z"/></g>
<g><path style="opacity:1" fill="#7ce7a3" d="M 28.5,95.5 C 31.179,95.5246 32.5123,96.858 32.5,99.5C 30.8333,98.5 29.5,97.1667 28.5,95.5 Z"/></g>
<g><path style="opacity:1" fill="#54e791" d="M 92.5,92.5 C 90.8516,97.0021 87.5183,99.0021 82.5,98.5C 82.5,98.1667 82.5,97.8333 82.5,97.5C 86.2872,96.7061 89.6205,95.0394 92.5,92.5 Z"/></g>
<g><path style="opacity:1" fill="#7fefa7" d="M 44.5,98.5 C 44.5,98.1667 44.5,97.8333 44.5,97.5C 57.1682,98.8017 69.8349,98.8017 82.5,97.5C 82.5,97.8333 82.5,98.1667 82.5,98.5C 69.8333,99.8333 57.1667,99.8333 44.5,98.5 Z"/></g>
<g><path style="opacity:1" fill="#17fe80" d="M 98.5,85.5 C 100.552,89.1629 103.219,89.4962 106.5,86.5C 108.071,89.0934 110.404,90.0934 113.5,89.5C 111.5,90.1667 109.5,90.8333 107.5,91.5C 106.07,92.5375 104.403,93.2041 102.5,93.5C 100.833,93.5 99.1667,93.5 97.5,93.5C 97.5,94.5 97.5,95.5 97.5,96.5C 96.1667,96.5 94.8333,96.5 93.5,96.5C 91.4384,105.098 89.4384,113.764 87.5,122.5C 73.496,122.667 59.496,122.5 45.5,122C 43.4817,121.495 41.4817,120.995 39.5,120.5C 39.0617,114.371 38.0617,108.371 36.5,102.5C 37.4345,101.432 37.7678,100.099 37.5,98.5C 39.8333,98.5 42.1667,98.5 44.5,98.5C 57.1667,99.8333 69.8333,99.8333 82.5,98.5C 87.5183,99.0021 90.8516,97.0021 92.5,92.5C 93.5832,92.4606 94.5832,92.1272 95.5,91.5C 96.5266,89.4469 97.5266,87.4469 98.5,85.5 Z"/></g>
<g><path style="opacity:1" fill="#5ced95" d="M 32.5,99.5 C 34.4044,99.7376 35.7377,100.738 36.5,102.5C 38.0617,108.371 39.0617,114.371 39.5,120.5C 38.8333,120.5 38.1667,120.5 37.5,120.5C 37.0069,113.2 35.3403,106.2 32.5,99.5 Z"/></g>
<g><path style="opacity:1" fill="#62e897" d="M 102.5,93.5 C 94.307,98.8891 90.6403,106.556 91.5,116.5C 90.596,117.209 90.2627,118.209 90.5,119.5C 90.1436,121.19 89.1436,122.19 87.5,122.5C 89.4384,113.764 91.4384,105.098 93.5,96.5C 94.8333,96.5 96.1667,96.5 97.5,96.5C 97.5,95.5 97.5,94.5 97.5,93.5C 99.1667,93.5 100.833,93.5 102.5,93.5 Z"/></g>
<g><path style="opacity:0.388" fill="#daece2" d="M 91.5,116.5 C 91.9382,116.435 92.2716,116.601 92.5,117C 91.9341,117.995 91.2674,118.828 90.5,119.5C 90.2627,118.209 90.596,117.209 91.5,116.5 Z"/></g>
<g><path style="opacity:1" fill="#98deb3" d="M 37.5,120.5 C 38.1667,120.5 38.8333,120.5 39.5,120.5C 39.8333,121.167 40.1667,121.833 40.5,122.5C 38.9731,122.573 37.9731,121.906 37.5,120.5 Z"/></g>
<g><path style="opacity:1" fill="#82eca6" d="M 39.5,120.5 C 41.4817,120.995 43.4817,121.495 45.5,122C 59.496,122.5 73.496,122.667 87.5,122.5C 86.7375,123.268 85.7375,123.768 84.5,124C 70.5,124.667 56.5,124.667 42.5,124C 41.5842,123.722 40.9175,123.222 40.5,122.5C 40.1667,121.833 39.8333,121.167 39.5,120.5 Z"/></g>
</svg>
