<svg width="20" height="20" viewBox="0 0 20 20" fill="none" xmlns="http://www.w3.org/2000/svg">
<path d="M4.16687 8.33366H5.83354C7.5002 8.33366 8.33354 7.50032 8.33354 5.83366V4.16699C8.33354 2.50033 7.5002 1.66699 5.83354 1.66699H4.16687C2.5002 1.66699 1.66687 2.50033 1.66687 4.16699V5.83366C1.66687 7.50032 2.5002 8.33366 4.16687 8.33366Z" stroke="currentcolor" stroke-width="1.5" stroke-miterlimit="10" stroke-linecap="round" stroke-linejoin="round"/>
<path d="M14.1669 8.33366H15.8335C17.5002 8.33366 18.3335 7.50032 18.3335 5.83366V4.16699C18.3335 2.50033 17.5002 1.66699 15.8335 1.66699H14.1669C12.5002 1.66699 11.6669 2.50033 11.6669 4.16699V5.83366C11.6669 7.50032 12.5002 8.33366 14.1669 8.33366Z" stroke="currentcolor" stroke-width="1.5" stroke-miterlimit="10" stroke-linecap="round" stroke-linejoin="round"/>
<path d="M14.1669 18.3337H15.8335C17.5002 18.3337 18.3335 17.5003 18.3335 15.8337V14.167C18.3335 12.5003 17.5002 11.667 15.8335 11.667H14.1669C12.5002 11.667 11.6669 12.5003 11.6669 14.167V15.8337C11.6669 17.5003 12.5002 18.3337 14.1669 18.3337Z" stroke="currentcolor" stroke-width="1.5" stroke-miterlimit="10" stroke-linecap="round" stroke-linejoin="round"/>
<path d="M4.16687 18.3337H5.83354C7.5002 18.3337 8.33354 17.5003 8.33354 15.8337V14.167C8.33354 12.5003 7.5002 11.667 5.83354 11.667H4.16687C2.5002 11.667 1.66687 12.5003 1.66687 14.167V15.8337C1.66687 17.5003 2.5002 18.3337 4.16687 18.3337Z" stroke="currentcolor" stroke-width="1.5" stroke-miterlimit="10" stroke-linecap="round" stroke-linejoin="round"/>
</svg>
