<svg width="21" height="20" viewBox="0 0 21 20" fill="none" xmlns="http://www.w3.org/2000/svg">
<path d="M14.5839 14.084C16.8339 11.834 16.8339 8.08398 14.5839 5.83398" stroke="white" stroke-width="1.5" stroke-miterlimit="10" stroke-linecap="round" stroke-linejoin="round"/>
<path d="M6.41556 5.91699C4.16556 8.16699 4.16556 11.917 6.41556 14.167" stroke="white" stroke-width="1.5" stroke-miterlimit="10" stroke-linecap="round" stroke-linejoin="round"/>
<path d="M8.58328 11.333C8.58328 12.083 9.16662 12.6663 9.91662 12.6663H11.3333C11.9166 12.6663 12.4999 12.1663 12.4999 11.4997C12.4999 10.7497 12.1666 10.4997 11.7499 10.333L9.41662 9.49967C8.83328 9.41634 8.58328 9.16634 8.58328 8.49967C8.58328 7.83301 9.08328 7.33301 9.74995 7.33301H11.2499C11.9999 7.33301 12.5833 7.91634 12.5833 8.66634" stroke="white" stroke-width="1.5" stroke-linecap="round" stroke-linejoin="round"/>
<path d="M10.5001 6.49902V13.499" stroke="white" stroke-width="1.5" stroke-linecap="round" stroke-linejoin="round"/>
<path d="M10.5009 18.3327C15.1033 18.3327 18.8343 14.6017 18.8343 9.99935C18.8343 5.39698 15.1033 1.66602 10.5009 1.66602C5.89856 1.66602 2.1676 5.39698 2.1676 9.99935C2.1676 14.6017 5.89856 18.3327 10.5009 18.3327Z" stroke="white" stroke-width="1.5" stroke-miterlimit="10" stroke-linecap="round" stroke-linejoin="round"/>
</svg>
