<svg width="35" height="35" viewBox="0 0 38 38" fill="none" xmlns="http://www.w3.org/2000/svg">
<path d="M20.7683 37.4902H23.2464C24.3412 37.4902 25.2471 36.6386 25.3151 35.5458C25.6513 30.1379 25.3586 24.567 23.4573 19.4992C22.5563 17.0979 21.2985 14.8233 19.496 12.9782C18.1717 11.6225 17.8906 11.0641 16.5561 12.0341C14.3904 13.6084 15.8637 13.8257 16.604 15.26C17.7229 17.4279 18.676 18.8727 19.1893 21.3811C20.098 25.8223 19.649 30.5402 18.7367 35.0116C18.4751 36.293 19.4607 37.4902 20.7683 37.4902Z" fill="#3C9B37" fill-opacity="0.6"/>
<path d="M35.4457 8.1091L35.4092 8.05151C35.3849 8.01381 35.3504 7.95629 35.3018 7.88496L35.1248 7.62015C35.0933 7.56849 35.043 7.51075 34.9955 7.45093L34.8355 7.26138L34.6536 7.04852L34.4485 6.83373C34.3061 6.6821 34.1451 6.52394 33.962 6.36912C33.8685 6.2868 33.7739 6.20568 33.6783 6.12576C33.579 6.04426 33.4719 5.96871 33.3635 5.88633C33.2544 5.80565 33.1426 5.72015 33.0232 5.64252L32.653 5.40695C32.5894 5.36717 32.5256 5.32501 32.4592 5.28731L32.2557 5.17768L31.8333 4.95273C31.6871 4.88333 31.5361 4.81743 31.3824 4.749C31.3054 4.71567 31.2283 4.67894 31.149 4.64776L30.9082 4.55633C30.2611 4.30487 29.5485 4.11383 28.7941 3.98692L28.5093 3.94098C28.4137 3.92561 28.3178 3.90877 28.2207 3.90253L27.6333 3.85058C27.2378 3.8324 26.8341 3.81317 26.4275 3.84086C26.2239 3.84961 26.0189 3.85615 25.8143 3.88145L25.5062 3.91367L25.3519 3.93229L25.3133 3.93697L25.294 3.93935L25.2844 3.94053C25.3295 3.93103 25.212 3.95478 25.2212 3.95293L25.1552 3.96451L24.6261 4.05706L24.5591 4.06901L24.4773 4.08845L24.3135 4.12779L23.9855 4.20861C23.76 4.26376 23.5679 4.33204 23.3669 4.39757C23.2668 4.42986 23.168 4.46578 23.0687 4.50036C22.9699 4.53599 22.8738 4.57963 22.7765 4.61911C22.6792 4.65904 22.5828 4.70076 22.487 4.74358L22.3432 4.80718C22.2956 4.82901 22.2494 4.85431 22.2025 4.87777C22.0151 4.97195 21.832 5.07348 21.6492 5.17256C20.9429 5.58914 20.2963 6.09946 19.727 6.68959L19.5249 6.90869C19.4586 6.98187 19.391 7.05223 19.3307 7.13075L18.9676 7.58482C18.8488 7.75619 18.7325 7.9243 18.6224 8.09329C18.5664 7.94582 18.4977 7.79479 18.4252 7.63485C18.3864 7.54593 18.3403 7.45865 18.2918 7.36966C18.2444 7.27993 18.1933 7.18953 18.1412 7.09676C18.0349 6.91285 17.9103 6.7299 17.7815 6.5393C17.6424 6.35754 17.5029 6.16361 17.3394 5.98207C17.2578 5.89122 17.1758 5.79808 17.0902 5.70627C17.0016 5.61527 16.9112 5.52607 16.8191 5.43871C16.6365 5.25747 16.4308 5.09382 16.2248 4.9243C15.801 4.59989 15.3346 4.30257 14.8356 4.05297C14.3339 3.80835 13.8085 3.59883 13.271 3.43785C12.7312 3.28281 12.1829 3.17148 11.6408 3.11032C11.1131 3.05482 10.5817 3.04313 10.052 3.07536C9.92408 3.08583 9.79768 3.09941 9.67322 3.11173C9.61095 3.11871 9.54935 3.12294 9.48789 3.13244L9.30517 3.16131C9.18434 3.18113 9.06551 3.19849 8.94884 3.22269C8.83217 3.24859 8.71765 3.27301 8.60551 3.30025C8.38092 3.35005 8.16673 3.42301 7.96181 3.48342C7.75822 3.55749 7.5637 3.62592 7.38164 3.70429C7.29065 3.74393 7.2027 3.78571 7.1172 3.82497C7.03162 3.86431 6.94872 3.90268 6.8696 3.94573C6.79004 3.98647 6.71382 4.02974 6.64012 4.07056C6.56649 4.11183 6.49502 4.15005 6.428 4.1934C6.29292 4.27645 6.17031 4.36031 6.0575 4.43416C5.94632 4.5132 5.84791 4.59217 5.75892 4.65964C5.67912 4.71986 5.60226 4.78388 5.52862 4.85149C5.46331 4.90938 5.4095 4.96119 5.36563 5.00164L5.23419 5.13018C5.1642 5.19865 5.11566 5.28602 5.09451 5.38162C5.07336 5.47722 5.08052 5.57691 5.11512 5.6685C5.14971 5.7601 5.21023 5.83964 5.2893 5.89739C5.36836 5.95515 5.46253 5.98862 5.56031 5.99372L5.60395 5.99602L5.77362 6.00485L5.97237 6.01124L6.0961 6.01406C6.14063 6.01725 6.18768 6.02051 6.23659 6.02252C6.33449 6.02682 6.44255 6.03461 6.55685 6.03825C6.6727 6.04701 6.79746 6.06044 6.9266 6.06831C7.18741 6.09317 7.47419 6.12501 7.77752 6.17348C7.85271 6.18134 7.93041 6.20072 8.0079 6.21348L8.24295 6.25527L8.48267 6.30759C8.56305 6.32422 8.64388 6.34017 8.72544 6.3634C8.80694 6.38522 8.88873 6.40415 8.97081 6.42449L9.21789 6.49551C9.38317 6.53886 9.54831 6.60083 9.71404 6.6513C10.0442 6.77049 10.3733 6.89852 10.6944 7.04562C10.7763 7.08468 10.8579 7.12444 10.9392 7.16489C10.8883 7.16727 10.8372 7.16927 10.7866 7.17335C10.6346 7.18404 10.4801 7.18701 10.33 7.20482L9.87799 7.25522C9.28082 7.33864 8.69264 7.44715 8.13422 7.60456C8.06408 7.62334 7.99372 7.64078 7.92448 7.66052L7.71844 7.72368C7.58188 7.76666 7.44547 7.80696 7.31165 7.85156C7.04647 7.94775 6.78277 8.03518 6.53198 8.14213C6.40684 8.1922 6.28234 8.24386 6.15851 8.2971C6.03702 8.35254 5.91641 8.40553 5.79855 8.46186C5.56105 8.56911 5.33602 8.69031 5.11648 8.80401C4.8985 8.92187 4.69024 9.04285 4.49052 9.1613C4.39129 9.22216 4.29466 9.28339 4.20033 9.34418C4.10607 9.40518 4.01285 9.46211 3.92446 9.52483C3.74678 9.64781 3.57785 9.76559 3.42073 9.8839C3.27267 9.99661 3.12634 10.1116 2.9818 10.2288C2.85658 10.3347 2.73258 10.442 2.60982 10.5507C2.49678 10.6533 2.39414 10.7538 2.30218 10.8407C2.11693 11.0186 1.9915 11.1648 1.90088 11.2664C1.81226 11.3688 1.76617 11.4257 1.76617 11.4257C1.73538 11.4638 1.71634 11.51 1.71138 11.5587C1.70642 11.6074 1.71575 11.6565 1.73823 11.7C1.76071 11.7435 1.79537 11.7795 1.83797 11.8036C1.88058 11.8277 1.92929 11.8389 1.97814 11.8358C1.97814 11.8358 2.05125 11.8312 2.18596 11.818L2.43214 11.7901C2.52855 11.7753 2.63743 11.7662 2.75722 11.7529C2.99346 11.7222 3.28484 11.6928 3.61118 11.6476L4.69611 11.5088C4.89256 11.4838 5.09719 11.4613 5.3053 11.4317L5.95033 11.3548L6.28394 11.3166C6.39691 11.3018 6.51014 11.2891 6.62357 11.2785C6.73824 11.2676 6.85261 11.2526 6.96839 11.2394C7.08469 11.2293 7.20144 11.2184 7.31841 11.2054C7.43537 11.1921 7.5536 11.1817 7.67191 11.1717L8.02823 11.1392L8.38649 11.1113C8.50635 11.1021 8.62599 11.0913 8.74585 11.0853C8.86564 11.0775 8.98595 11.0721 9.10559 11.0619L9.46429 11.0462L9.64323 11.0371L9.82121 11.0329C9.93959 11.0311 10.0587 11.025 10.1759 11.0237C10.6466 11.0177 11.1052 11.0278 11.5465 11.0513C11.7632 11.072 11.9819 11.0792 12.1868 11.11C12.3975 11.1273 12.5932 11.1608 12.7929 11.1768C12.889 11.191 12.9838 11.205 13.0796 11.2151C13.1267 11.2216 13.1766 11.2232 13.2215 11.2316C13.267 11.2395 13.3127 11.246 13.3584 11.2525C13.404 11.2593 13.4499 11.2644 13.4957 11.27C13.5186 11.273 13.5416 11.2752 13.5647 11.2772L13.6303 11.2882C13.7172 11.304 13.8048 11.3171 13.8934 11.3272C13.9389 11.3309 13.9784 11.3427 14.0208 11.3493L14.147 11.3709C14.1889 11.3783 14.2311 11.385 14.2741 11.3902C14.3178 11.3947 14.355 11.4068 14.3958 11.4146C14.476 11.4318 14.5584 11.4451 14.6397 11.4602C14.7209 11.4745 14.7947 11.4977 14.8742 11.5134C15.1901 11.5789 15.482 11.6684 15.7644 11.757C15.8393 11.7748 15.8996 11.8062 15.9676 11.8289C16.0334 11.8536 16.0987 11.8778 16.1639 11.9006L16.2604 11.9348L16.3487 11.9737L16.521 12.0462C16.7486 12.1362 16.9248 12.2295 17.0584 12.2881C17.1246 12.318 17.177 12.3414 17.2145 12.3562L17.2357 12.3651C17.2386 12.7464 17.2793 13.0825 17.3393 13.3623C17.3579 13.4497 17.3752 13.5316 17.3943 13.6082C17.415 13.6849 17.4367 13.756 17.4572 13.8219C17.4909 13.9336 17.5304 14.0435 17.5754 14.1511C17.6091 14.2392 17.6439 14.305 17.6641 14.3495L17.6979 14.4163C17.7262 14.4723 17.7676 14.5206 17.8186 14.5571C17.8696 14.5936 17.9286 14.6173 17.9907 14.626C18.0528 14.6348 18.1161 14.6283 18.1752 14.6073C18.2343 14.5863 18.2875 14.5513 18.3301 14.5053L18.483 14.3402L18.499 14.3229C18.5092 14.3115 18.5266 14.2943 18.5449 14.2724C18.5812 14.2284 18.6424 14.1634 18.7101 14.0828L19.2476 13.4441L19.9302 12.6249C19.959 12.5888 19.9897 12.5529 20.021 12.517C20.0361 12.4994 20.05 12.4795 20.0645 12.4633L20.1071 12.4198L20.1271 12.3978C20.1342 12.3891 20.1391 12.3868 20.1486 12.3712L20.2 12.2932L20.2249 12.2535L20.2374 12.2335C20.2257 12.2764 20.2358 12.2435 20.234 12.2521L20.237 12.2487L20.2429 12.242C20.2586 12.2239 20.2751 12.2061 20.2901 12.1877C20.3506 12.1144 20.4104 12.0405 20.4693 11.966L20.514 11.9101L20.566 11.856L20.6699 11.7477C20.7992 11.6002 20.966 11.4642 21.1206 11.3263C21.2045 11.2598 21.2952 11.1964 21.3807 11.1315C21.4255 11.1 21.4636 11.0655 21.5129 11.0364C21.5605 11.0064 21.609 10.9773 21.6549 10.9466C22.0228 10.7016 22.4397 10.4975 22.8595 10.3025C23.2799 10.1078 23.7011 9.91729 24.1271 9.71475L25.422 9.12375C25.4662 9.10269 25.5101 9.08099 25.5537 9.05866L25.6197 9.02422L25.6528 9.00656L25.7157 8.98622C25.8873 8.93308 26.0574 8.87318 26.2278 8.8167L26.2916 8.79526C26.3158 8.78991 26.1117 8.83155 26.2007 8.81314L26.2064 8.81143L26.2178 8.80795L26.2407 8.80097L26.3324 8.77277L26.5155 8.71094C26.577 8.69165 26.6371 8.66478 26.7001 8.65083C26.7627 8.63487 26.8252 8.61743 26.8877 8.59858C27.0129 8.56161 27.1383 8.52116 27.2663 8.49578C27.3938 8.46572 27.5215 8.42869 27.6503 8.40175C27.7792 8.3774 27.9086 8.34935 28.0385 8.32218C28.1684 8.29532 28.2986 8.27869 28.4292 8.25554L28.6254 8.22199L28.8211 8.19831L29.0171 8.1736C29.0828 8.16388 29.1487 8.15349 29.2132 8.15015C29.343 8.14042 29.473 8.12914 29.6037 8.11497C29.6695 8.10636 29.733 8.1065 29.7973 8.10354C29.8613 8.10146 29.9263 8.09567 29.9907 8.09188C30.2522 8.06517 30.4977 8.08454 30.7523 8.07103L31.1212 8.07949L31.3042 8.08409C31.3636 8.08851 31.423 8.09222 31.4824 8.09522L31.8358 8.11534C31.9523 8.12268 32.0605 8.1422 32.174 8.14963C32.2854 8.16091 32.3982 8.16811 32.504 8.18317C32.6086 8.20017 32.7118 8.21657 32.8153 8.22919C32.917 8.2444 33.0217 8.25324 33.1148 8.27394C33.2087 8.29383 33.3022 8.31068 33.3937 8.32649L33.658 8.37495C33.7352 8.39336 33.8135 8.40702 33.8875 8.42275L34.1015 8.46795C34.1708 8.48406 34.2355 8.48947 34.3007 8.51397C34.4283 8.55538 34.5395 8.58759 34.6299 8.61349C34.7194 8.64051 34.7914 8.65736 34.8386 8.6702L34.9108 8.68905L35.0052 8.71369C35.0583 8.72743 35.1138 8.73011 35.168 8.72157C35.2222 8.71303 35.2741 8.69345 35.3205 8.66404C35.3652 8.63586 35.4039 8.59914 35.4344 8.55599C35.4649 8.51283 35.4866 8.46409 35.4982 8.41254C35.5098 8.36099 35.5112 8.30766 35.5022 8.25559C35.4931 8.20352 35.474 8.15374 35.4457 8.1091Z" fill="#3C9B37" fill-opacity="0.6"/>
<path d="M32.2668 15.2149C32.2596 14.9008 32.2206 14.5215 32.1281 14.1006C32.0364 13.6796 31.893 13.2164 31.6879 12.7328C31.4646 12.2131 31.1933 11.7154 30.8774 11.2461C30.7088 10.9953 30.5213 10.7461 30.3175 10.4977C30.1099 10.2528 29.8886 10.0061 29.6425 9.76987C29.1514 9.29658 28.58 8.84311 27.8956 8.46051C27.8091 8.41243 27.7219 8.36564 27.634 8.32016L27.3599 8.18872C27.2683 8.14508 27.1702 8.10567 27.0749 8.06462L27.0025 8.03486L26.9843 8.02752C27.0097 8.03561 26.9393 8.01223 26.9445 8.01378L26.9382 8.01119L26.9128 8.0008L26.862 7.97994C26.8438 7.97267 26.8338 7.96762 26.7977 7.9553L26.6151 7.89266L26.4601 7.84256C26.3582 7.81081 26.2554 7.78207 26.1518 7.75639C25.9466 7.70474 25.7433 7.65791 25.54 7.62681C24.7285 7.49128 23.9258 7.49173 23.1413 7.60937C22.758 7.66667 22.3798 7.75387 22.0102 7.87017C22.1897 7.63516 22.3744 7.40414 22.5641 7.17727C22.8549 6.8274 23.1642 6.47879 23.4815 6.13471C23.7993 5.79138 24.1242 5.45101 24.4528 5.12527C24.7802 4.79789 25.1077 4.47904 25.4302 4.17779C25.7397 3.8891 26.0531 3.60464 26.3704 3.3245C26.6514 3.07632 26.9357 2.83196 27.2233 2.59151C27.4871 2.37138 27.7261 2.17388 27.9293 2.01216C27.9804 1.97319 28.0284 1.93245 28.0741 1.89467L28.2004 1.79262C28.2401 1.76167 28.2767 1.72961 28.3108 1.70133C28.3449 1.67276 28.3807 1.64789 28.4101 1.62511C28.4723 1.57737 28.5335 1.52832 28.5937 1.47801C28.6431 1.43589 28.681 1.38182 28.7036 1.32094C28.7263 1.26005 28.733 1.19439 28.7231 1.13019C28.7131 1.06599 28.687 1.0054 28.647 0.95418C28.6071 0.90296 28.5547 0.862818 28.4948 0.837574C28.4948 0.837574 28.4181 0.805214 28.2755 0.752742C28.1392 0.700492 27.9015 0.637257 27.6239 0.576917C27.4678 0.544399 27.3108 0.516309 27.1531 0.492679C26.9817 0.469894 26.7942 0.447851 26.5947 0.435605C26.1949 0.408664 25.7418 0.408589 25.2506 0.451191C24.7595 0.493421 24.2314 0.57996 23.683 0.717191C23.1348 0.854644 22.568 1.04531 21.9985 1.28919C21.7161 1.41485 21.429 1.54748 21.1482 1.70044C20.8636 1.84799 20.5856 2.01587 20.3084 2.19251C20.0317 2.37004 19.7612 2.56383 19.4946 2.76756C19.2298 2.97396 18.9699 3.19098 18.7194 3.42261C18.2192 3.88596 17.7502 4.39711 17.3357 4.95486C17.1263 5.23155 16.9324 5.52137 16.7596 5.82396C16.5855 6.12491 16.4323 6.43749 16.3011 6.75949C16.0375 7.39985 15.8672 8.07553 15.8016 8.73935C15.7663 9.07007 15.7646 9.40153 15.7795 9.71844C15.7843 9.79333 15.7905 9.86732 15.7975 9.94073C15.6801 9.88138 15.5621 9.82321 15.4435 9.76624L15.3211 9.70805L15.196 9.65721L14.9388 9.55486C14.5894 9.40784 14.2176 9.30304 13.8214 9.18466C13.6244 9.13323 13.4226 9.09033 13.2142 9.04409C13.1105 9.02309 13.0037 8.99562 12.8986 8.98063C12.793 8.96453 12.686 8.94709 12.5777 8.93321C12.1418 8.86656 11.697 8.84429 11.2315 8.82544C11.0035 8.83019 10.7709 8.83642 10.5344 8.84645C10.4155 8.85105 10.3005 8.86611 10.1832 8.87895C10.0662 8.89268 9.94763 8.905 9.82932 8.92185C8.8866 9.05901 7.93801 9.35128 7.06082 9.80223C6.95242 9.86036 6.8451 9.92048 6.73893 9.98258C6.63166 10.0438 6.52537 10.1067 6.42009 10.1713C6.36754 10.2038 6.31358 10.2346 6.2623 10.2688L6.11074 10.375C6.00951 10.4456 5.90902 10.5175 5.80978 10.5913C5.71085 10.6653 5.60902 10.7363 5.51469 10.8159C5.42073 10.8959 5.32551 10.9744 5.23414 11.0576L4.95902 11.3053L4.89059 11.3674C4.86802 11.3878 4.84138 11.4152 4.81704 11.4387L4.66838 11.5859L4.37996 11.8882L4.23791 12.0402L4.1674 12.1163L4.12428 12.1705C4.01169 12.3108 3.90504 12.4568 3.79579 12.5998L3.75504 12.6536C3.77122 12.6369 3.59732 12.8211 3.66768 12.7475L3.66108 12.7567L3.64779 12.775L3.6213 12.8117L3.51591 12.9582L3.31136 13.2541C3.17346 13.4495 3.04929 13.6513 2.93173 13.8559C2.68525 14.2573 2.48627 14.6786 2.29479 15.0906C2.20684 15.3011 2.12416 15.5114 2.04222 15.7185C1.9991 15.8209 1.966 15.9277 1.93215 16.0332L1.83211 16.3475C1.57843 17.1845 1.42331 18.009 1.37551 18.7956L1.3554 19.0862C1.34924 19.1821 1.35213 19.2798 1.3508 19.3749C1.35057 19.5658 1.34961 19.7518 1.35495 19.9342C1.36668 20.1186 1.3787 20.2984 1.39592 20.4739L1.42071 20.733C1.43043 20.8186 1.44639 20.9042 1.46034 20.9879L1.54651 21.4748C1.57657 21.632 1.61546 21.786 1.65613 21.9339C1.69755 22.082 1.73339 22.2239 1.77778 22.3615C1.82342 22.4993 1.86877 22.6315 1.91835 22.7582C2.01082 23.011 2.11161 23.2431 2.21893 23.4518L2.36841 23.7488C2.42081 23.8477 2.47759 23.9395 2.52857 24.0254L2.67508 24.2646C2.69794 24.3015 2.72236 24.3365 2.74463 24.3703C2.75605 24.3868 2.76682 24.4046 2.77825 24.419L2.81239 24.4599C2.88806 24.5518 2.96556 24.6421 3.04484 24.7308C3.108 24.8044 3.16255 24.8596 3.19691 24.8972L3.25005 24.9541L3.34001 25.0505C3.40268 25.1174 3.48313 25.165 3.57194 25.1878C3.66074 25.2106 3.7542 25.2076 3.84134 25.1791C3.92849 25.1506 4.0057 25.0979 4.06391 25.0271C4.12213 24.9563 4.15893 24.8703 4.17 24.7793L4.17831 24.7107C4.18328 24.6656 4.19338 24.598 4.20043 24.5112L4.23004 24.1905C4.23293 24.1245 4.25052 24.068 4.26099 24.0018L4.29609 23.7986C4.30804 23.7277 4.32222 23.6537 4.33328 23.5775L4.38627 23.3255C4.4052 23.2384 4.42405 23.1485 4.44127 23.056C4.457 22.9637 4.48847 22.8676 4.51237 22.7697C4.53901 22.6718 4.56343 22.5715 4.588 22.469C4.61464 22.3665 4.6513 22.2617 4.68344 22.1552C4.71929 22.0488 4.74467 21.9399 4.78364 21.8298L4.90409 21.495L4.9648 21.324L5.03487 21.1518L5.17714 20.8015C5.23422 20.6853 5.28602 20.5666 5.34005 20.4473C5.36766 20.3878 5.39208 20.3272 5.42236 20.2678L5.51595 20.0897C5.75086 19.6082 6.04484 19.1288 6.36309 18.6577C6.44621 18.5416 6.52466 18.4225 6.6109 18.3076L6.87111 17.963C6.96055 17.8498 7.05859 17.7422 7.15114 17.6309C7.23968 17.5165 7.3401 17.4115 7.43814 17.3046C7.53604 17.1977 7.63126 17.0883 7.73903 16.9907L7.89504 16.8394L7.97074 16.7618L7.98966 16.7424L7.99909 16.7326L8.00384 16.7278C8.0457 16.6837 7.95196 16.7826 7.96406 16.7702L8.01341 16.7248L8.40885 16.3609L8.45784 16.3162L8.49598 16.2881L8.57176 16.2315L8.72116 16.1174C8.80837 16.0393 8.93276 15.9542 9.04632 15.8706C9.10421 15.8293 9.1592 15.7846 9.21524 15.7411C9.27142 15.6979 9.33198 15.6616 9.3898 15.6212C9.50922 15.5466 9.61535 15.4512 9.73625 15.3815C9.85589 15.3096 9.96915 15.2278 10.0851 15.1507C10.1503 15.11 10.2157 15.0707 10.281 15.0309C10.2546 15.0607 10.2274 15.0898 10.2014 15.12C9.6846 15.7218 9.25725 16.4013 8.94048 17.1607C8.85869 17.3494 8.79026 17.5464 8.72487 17.7477C8.69156 17.8491 8.66121 17.9515 8.63388 18.0546L8.59388 18.2126L8.54987 18.4005C8.54104 18.4377 8.54 18.4488 8.53651 18.4681L8.52716 18.5221L8.52248 18.5491L8.52129 18.5559C8.5227 18.5507 8.50511 18.6228 8.51172 18.5969L8.5083 18.6162L8.49502 18.6933C8.47906 18.796 8.46029 18.8999 8.44848 19.0008L8.41405 19.3028C8.40587 19.4014 8.39911 19.5002 8.39378 19.599C8.35378 20.382 8.43394 21.1072 8.57369 21.7747C8.64279 22.1088 8.73408 22.4274 8.83108 22.7334C8.93306 23.0382 9.04439 23.3294 9.16707 23.6056C9.39653 24.1226 9.67372 24.6171 9.99505 25.0827C10.2954 25.5135 10.6114 25.8812 10.9192 26.1828C11.2265 26.485 11.527 26.7197 11.7891 26.8929C11.9165 26.9819 12.0433 27.0502 12.1486 27.1101C12.2577 27.1724 12.364 27.2226 12.4402 27.2597C12.583 27.3098 12.6622 27.3335 12.6622 27.3335C12.7717 27.3662 12.8881 27.3683 12.9988 27.3396C13.1094 27.3108 13.21 27.2523 13.2898 27.1704C13.3695 27.0885 13.4253 26.9864 13.4511 26.875C13.4769 26.7636 13.4717 26.6473 13.4361 26.5387L13.436 26.5383C13.436 26.5383 13.4102 26.4597 13.3563 26.3182C13.3394 26.2545 13.3278 26.1828 13.3051 26.0957C13.2813 26.004 13.2583 25.899 13.2316 25.783C13.1305 25.3169 13.0267 24.6589 12.9708 23.889C12.9445 23.5032 12.9271 23.0913 12.9285 22.6661C12.9288 22.5599 12.9289 22.4532 12.9333 22.3454C12.9331 22.2384 12.9397 22.1303 12.9436 22.0224C12.9541 21.8067 12.9692 21.59 12.99 21.3767C12.9944 21.3231 13.0029 21.2704 13.0087 21.2174C13.0135 21.1642 13.0194 21.1116 13.0273 21.0596C13.0394 20.9544 13.0596 20.8519 13.0736 20.7498C13.0921 20.6494 13.1089 20.5482 13.1321 20.4525C13.1499 20.3544 13.1748 20.262 13.1982 20.1705C13.2119 20.1261 13.2239 20.0815 13.2349 20.0368L13.2746 19.9102C13.2871 19.8679 13.3039 19.8307 13.3175 19.7907L13.3275 19.7611L13.3299 19.7536C13.3374 19.7234 13.3207 19.791 13.3234 19.7814L13.3256 19.7749L13.3345 19.749L13.3522 19.697C13.3578 19.681 13.3653 19.6566 13.3669 19.6588C13.3726 19.6512 13.3779 19.6436 13.3827 19.636L13.4079 19.5846C13.4264 19.5498 13.4404 19.5133 13.4596 19.4764C13.4942 19.4026 13.5366 19.3281 13.576 19.2499C13.7483 18.9298 13.9403 18.6206 14.1509 18.3241C14.3492 18.045 14.5648 17.7786 14.7965 17.5265C15.0127 17.2931 15.2221 17.0933 15.4386 16.9194C15.6551 16.7467 15.8845 16.5956 16.1441 16.4764C16.4022 16.3578 16.6893 16.2708 16.9763 16.2174C17.2631 16.1611 17.5465 16.14 17.794 16.126C17.9191 16.1168 18.0305 16.1202 18.134 16.1149C18.2355 16.1144 18.3243 16.1145 18.3985 16.113C18.5445 16.1152 18.6296 16.1116 18.6296 16.1116L18.6873 16.1093C18.769 16.1055 18.8492 16.0863 18.9237 16.0528C19.1579 15.9478 19.2988 15.7213 19.3072 15.4811C19.3697 15.4371 19.424 15.3825 19.4675 15.3197L19.499 15.2739C19.499 15.2739 19.5473 15.2039 19.6231 15.079C19.6639 15.017 19.711 14.9417 19.7654 14.8561C19.8248 14.7712 19.8812 14.6751 19.9555 14.5741C20.099 14.3719 20.2676 14.1431 20.4678 13.9301C20.6656 13.7154 20.892 13.5186 21.1297 13.3631C21.3686 13.2066 21.6186 13.0927 21.88 13.0012C22.1424 12.9104 22.4231 12.8393 22.7357 12.7803C23.0724 12.7181 23.4127 12.6772 23.7545 12.6577C24.1153 12.637 24.4944 12.6389 24.8443 12.6631C24.9314 12.6713 25.017 12.6751 25.098 12.685C25.1394 12.6885 25.1776 12.6959 25.217 12.6988L25.2739 12.7048C25.283 12.7048 25.2922 12.7043 25.3016 12.7035C25.3006 12.701 25.3252 12.7077 25.3418 12.7114L25.3951 12.724L25.4218 12.7303L25.4285 12.7319C25.438 12.7348 25.3718 12.7129 25.4015 12.7226L25.4091 12.7245L25.4395 12.7319C25.4805 12.7417 25.521 12.7472 25.5636 12.7591L25.6919 12.7928C25.7354 12.8074 25.7795 12.8209 25.8246 12.8329C25.9145 12.8618 26.006 12.8898 26.0985 12.9268C26.1919 12.9582 26.2865 12.9977 26.3814 13.0355C26.4753 13.078 26.5729 13.1153 26.6684 13.1611C26.7166 13.1821 26.7644 13.205 26.8119 13.2293C26.86 13.2526 26.9091 13.2734 26.9569 13.2982C27.1498 13.395 27.3403 13.4964 27.5283 13.6023C27.6218 13.6564 27.7169 13.7084 27.8074 13.7654C27.901 13.819 27.9915 13.8757 28.0816 13.9319C28.4424 14.1568 28.782 14.3906 29.0947 14.618C29.717 15.0749 30.2191 15.5126 30.56 15.8462C30.644 15.9305 30.7207 16.0058 30.7857 16.0748C30.8473 16.1402 30.9019 16.1882 30.9469 16.2364C31.038 16.3574 31.0908 16.421 31.0908 16.421L31.091 16.4212C31.1725 16.5196 31.2823 16.5906 31.4055 16.6245C31.5654 16.6688 31.7365 16.6478 31.8809 16.5661C32.0254 16.4843 32.1315 16.3485 32.1758 16.1885C32.1758 16.1885 32.1979 16.1089 32.2314 15.9612C32.2405 15.8769 32.2545 15.7602 32.2598 15.6347C32.2648 15.5138 32.2744 15.3701 32.2668 15.2149Z" fill="#3C9B37" fill-opacity="0.6"/>
<path d="M23.6146 19.9312L19.1381 21.1413C18.8763 19.9609 18.5137 19.0156 18.0814 18.1036L22.1707 16.6602C22.6663 17.5725 23.0918 18.5251 23.4573 19.4992C23.511 19.6428 23.5634 19.7868 23.6146 19.9312ZM19.6764 27.3506L25.1594 26.7877C25.0264 25.6371 24.8413 24.4954 24.5935 23.3691L19.591 24.2261C19.6766 25.261 19.7019 26.3046 19.6764 27.3506ZM19.0477 33.3667H25.4134C25.4401 32.399 25.4433 31.4289 25.4163 30.4602H19.4627C19.356 31.434 19.215 32.4045 19.0477 33.3667Z" fill="#3C9B37" fill-opacity="0.988235"/>
</svg>
